<?xml version="1.0" encoding="UTF-8" standalone="no"?>
<!DOCTYPE svg PUBLIC "-//W3C//DTD SVG 1.1//EN" "http://www.w3.org/Graphics/SVG/1.1/DTD/svg11.dtd">
<svg xmlns="http://www.w3.org/2000/svg" xmlns:xlink="http://www.w3.org/1999/xlink" version="1.1" width="864pt" height="792pt" viewBox="0 0 864 792">
<g enable-background="new">
<clipPath id="cp0">
<path transform="matrix(1,0,0,-1,0,792)" d="M 0 792 L 863.76 792 L 863.76 .24 L 0 .24 Z "/>
</clipPath>
<g clip-path="url(#cp0)">
<clipPath id="cp1">
<path transform="matrix(1,0,0,-1,0,792)" d="M 0 0 L 864 0 L 864 792 L 0 792 Z "/>
</clipPath>
<g clip-path="url(#cp1)">
<path transform="matrix(1,0,0,-1,0,792)" d="M 0 792 L 863.76 792 L 863.76 .24 L 0 .24 Z " fill="#ffffff"/>
</g>
</g>
<clipPath id="cp2">
<path transform="matrix(1,0,0,-1,0,792)" d="M 0 0 L 864 0 L 864 792 L 0 792 Z "/>
</clipPath>
<g clip-path="url(#cp2)">
<path transform="matrix(1,0,0,-1,0,792)" d="M 0 792 L 864 792 L 864 0 L 0 0 Z " fill="#ffffff"/>
<path transform="matrix(1,0,0,-1,0,792)" d="M 15.04386 768.4166 C 15.04386 773.4166 19.09711 777.4698 24.09706 777.4698 L 839.903 777.4698 C 844.9029 777.4698 848.9562 773.4166 848.9562 768.4166 L 848.9562 732.2073 C 848.9562 727.2073 844.9029 723.154 839.903 723.154 L 24.09706 723.154 C 19.09711 723.154 15.04386 727.2073 15.04386 732.2073 Z " fill="#d9d9d9"/>
<path transform="matrix(.00007874016,0,0,.00007874016,15.04386,14.530212)" stroke-width="12700" stroke-linecap="butt" stroke-miterlimit="8" stroke-linejoin="miter" fill="none" stroke="#000000" d="M 0 114976.2 C 0 51476.61 51476.36 0 114975.7 0 L 10475711 0 C 10539210 0 10590687 51476.61 10590687 114976.2 L 10590687 574834.8 C 10590687 638334.4 10539210 689811 10475711 689811 L 114975.7 689811 C 51476.36 689811 0 638334.4 0 574834.8 Z "/>
<text xml:space="preserve" transform="matrix(.24 0 -0 .24 79.57933 841.92)" font-size="100" font-family="CambriaMath"><tspan y="-3299" x="0">L</tspan></text>
<path transform="matrix(1,0,0,-1,0,792)" d="M 125.946 759.8212 C 128.2273 759.2196 129.9792 757.9208 131.2019 755.9247 C 132.4246 753.9286 133.0359 751.5204 133.0359 748.7001 C 133.0359 745.872 132.4265 743.4638 131.2078 741.4755 C 129.989 739.4872 128.2351 738.1923 125.946 737.5907 L 125.6648 738.4931 C 127.4695 739.0946 128.8113 740.2821 129.6902 742.0556 C 130.5691 743.829 131.0085 746.0829 131.0085 748.8173 C 131.0085 751.4579 130.571 753.6513 129.696 755.3974 C 128.821 757.1435 127.4656 758.3173 125.6296 758.9189 Z M 106.5235 759.8212 L 106.84 758.9189 C 105.0118 758.3173 103.6583 757.1435 102.7794 755.3974 C 101.9005 753.6513 101.461 751.4579 101.461 748.8173 C 101.461 746.0829 101.9005 743.829 102.7794 742.0556 C 103.6583 740.2821 105.0001 739.0946 106.8048 738.4931 L 106.5235 737.5907 C 104.2345 738.1923 102.4806 739.4872 101.2618 741.4755 C 100.0431 743.4638 99.4337 745.872 99.4337 748.7001 C 99.4337 751.5204 100.045 753.9286 101.2677 755.9247 C 102.4903 757.9208 104.2423 759.2196 106.5235 759.8212 Z " fill-rule="evenodd"/>
<text xml:space="preserve" transform="matrix(.24 0 -0 .24 107.2843 841.92)" font-size="100" font-family="CambriaMath"><tspan y="-3299" x="0">"</tspan></text>
<text xml:space="preserve" transform="matrix(.24 0 -0 .24 135.1443 841.92)" font-size="100" font-family="CambriaMath"><tspan y="-3299" x="0">u</tspan></text>
<path transform="matrix(1,0,0,-1,0,792)" d="M 181.886 759.8212 C 184.1673 759.2196 185.9192 757.9208 187.1419 755.9247 C 188.3646 753.9286 188.9759 751.5204 188.9759 748.7001 C 188.9759 745.872 188.3665 743.4638 187.1478 741.4755 C 185.929 739.4872 184.1751 738.1923 181.886 737.5907 L 181.6048 738.4931 C 183.4095 739.0946 184.7513 740.2821 185.6302 742.0556 C 186.5091 743.829 186.9485 746.0829 186.9485 748.8173 C 186.9485 751.4579 186.511 753.6513 185.636 755.3974 C 184.761 757.1435 183.4056 758.3173 181.5696 758.9189 Z M 162.4635 759.8212 L 162.78 758.9189 C 160.9518 758.3173 159.5983 757.1435 158.7194 755.3974 C 157.8405 753.6513 157.401 751.4579 157.401 748.8173 C 157.401 746.0829 157.8405 743.829 158.7194 742.0556 C 159.5983 740.2821 160.9401 739.0946 162.7448 738.4931 L 162.4635 737.5907 C 160.1745 738.1923 158.4206 739.4872 157.2018 741.4755 C 155.9831 743.4638 155.3737 745.872 155.3737 748.7001 C 155.3737 751.5204 155.985 753.9286 157.2077 755.9247 C 158.4303 757.9208 160.1823 759.2196 162.4635 759.8212 Z " fill-rule="evenodd"/>
<text xml:space="preserve" transform="matrix(.24 0 -0 .24 163.2243 841.92)" font-size="100" font-family="CambriaMath"><tspan y="-3299" x="0">"</tspan></text>
<text xml:space="preserve" transform="matrix(.24 0 -0 .24 197.7493 841.92)" font-size="100" font-family="CambriaMath"><tspan y="-3299" x="0">=</tspan></text>
<text xml:space="preserve" transform="matrix(.24 0 -0 .24 222.2893 841.92)" font-size="100" font-family="CambriaMath"><tspan y="-3299" x="0">f</tspan></text>
<path transform="matrix(1,0,0,-1,0,792)" d="M 263.031 759.8212 C 265.3123 759.2196 267.0642 757.9208 268.2869 755.9247 C 269.5096 753.9286 270.1209 751.5204 270.1209 748.7001 C 270.1209 745.872 269.5115 743.4638 268.2928 741.4755 C 267.074 739.4872 265.3201 738.1923 263.031 737.5907 L 262.7498 738.4931 C 264.5545 739.0946 265.8963 740.2821 266.7752 742.0556 C 267.6541 743.829 268.0935 746.0829 268.0935 748.8173 C 268.0935 751.4579 267.656 753.6513 266.781 755.3974 C 265.906 757.1435 264.5506 758.3173 262.7146 758.9189 Z M 243.6085 759.8212 L 243.9249 758.9189 C 242.0968 758.3173 240.7433 757.1435 239.8644 755.3974 C 238.9855 753.6513 238.546 751.4579 238.546 748.8173 C 238.546 746.0829 238.9855 743.829 239.8644 742.0556 C 240.7433 740.2821 242.0851 739.0946 243.8898 738.4931 L 243.6085 737.5907 C 241.3195 738.1923 239.5656 739.4872 238.3468 741.4755 C 237.1281 743.4638 236.5187 745.872 236.5187 748.7001 C 236.5187 751.5204 237.13 753.9286 238.3527 755.9247 C 239.5753 757.9208 241.3273 759.2196 243.6085 759.8212 Z " fill-rule="evenodd"/>
<text xml:space="preserve" transform="matrix(.24 0 -0 .24 244.3693 841.92)" font-size="100" font-family="CambriaMath"><tspan y="-3299" x="0">"</tspan></text>
<text xml:space="preserve" transform="matrix(.24 0 -0 .24 272.2293 841.92)" font-size="100" font-family="CambriaMath"><tspan y="-3299" x="0">,</tspan></text>
<text xml:space="preserve" transform="matrix(.24 0 -0 .24 325.1043 841.92)" font-size="100" font-family="CambriaMath"><tspan y="-3299" x="0">"</tspan></text>
<text xml:space="preserve" transform="matrix(.24 0 -0 .24 349.6693 841.92)" font-size="100" font-family="CambriaMath"><tspan y="-3299" x="0">&#x2208;</tspan></text>
<text xml:space="preserve" transform="matrix(.24 0 -0 .24 371.3343 841.92)" font-size="100" font-family="CambriaMath"><tspan y="-3299" x="0">&#x03a9;</tspan></text>
<text xml:space="preserve" transform="matrix(.24 0 -0 .24 403.3343 841.92)" font-size="100" font-family="CambriaMath"><tspan y="-3299" x="0">(</tspan></text>
<text xml:space="preserve" transform="matrix(.24 0 -0 .24 413.3343 841.92)" font-size="100" font-family="CambriaMath"><tspan y="-3299" x="0">*</tspan></text>
<text xml:space="preserve" transform="matrix(.24 0 -0 .24 428.8993 841.92)" font-size="100" font-family="CambriaMath"><tspan y="-3299" x="0">)</tspan></text>
<text xml:space="preserve" transform="matrix(.24 0 -0 .24 459.7438 841.92)" font-size="100" font-family="CambriaMath"><tspan y="-3299" x="0">L</tspan></text>
<text xml:space="preserve" transform="matrix(.24 0 -0 .24 472.6188 846.72)" font-size="75" font-family="CambriaMath"><tspan y="-3299" x="0">,</tspan></text>
<path transform="matrix(1,0,0,-1,0,792)" d="M 513.6305 759.8212 C 515.9118 759.2196 517.6637 757.9208 518.8864 755.9247 C 520.109 753.9286 520.7204 751.5204 520.7204 748.7001 C 520.7204 745.872 520.111 743.4638 518.8922 741.4755 C 517.6735 739.4872 515.9196 738.1923 513.6305 737.5907 L 513.3493 738.4931 C 515.1539 739.0946 516.4957 740.2821 517.3747 742.0556 C 518.2536 743.829 518.693 746.0829 518.693 748.8173 C 518.693 751.4579 518.2555 753.6513 517.3805 755.3974 C 516.5055 757.1435 515.15 758.3173 513.3141 758.9189 Z M 494.208 759.8212 L 494.5244 758.9189 C 492.6963 758.3173 491.3428 757.1435 490.4639 755.3974 C 489.585 753.6513 489.1455 751.4579 489.1455 748.8173 C 489.1455 746.0829 489.585 743.829 490.4639 742.0556 C 491.3428 740.2821 492.6846 739.0946 494.4893 738.4931 L 494.208 737.5907 C 491.919 738.1923 490.165 739.4872 488.9463 741.4755 C 487.7275 743.4638 487.1182 745.872 487.1182 748.7001 C 487.1182 751.5204 487.7295 753.9286 488.9522 755.9247 C 490.1748 757.9208 491.9268 759.2196 494.208 759.8212 Z " fill-rule="evenodd"/>
<text xml:space="preserve" transform="matrix(.24 0 -0 .24 494.9688 841.92)" font-size="100" font-family="CambriaMath"><tspan y="-3299" x="0">"</tspan></text>
<text xml:space="preserve" transform="matrix(.24 0 -0 .24 522.8288 841.92)" font-size="100" font-family="CambriaMath"><tspan y="-3299" x="0">u</tspan></text>
<text xml:space="preserve" transform="matrix(.24 0 -0 .24 536.0788 846.72)" font-size="75" font-family="CambriaMath"><tspan y="-3299" x="0">,</tspan></text>
<path transform="matrix(1,0,0,-1,0,792)" d="M 577.0905 759.8212 C 579.3718 759.2196 581.1237 757.9208 582.3464 755.9247 C 583.569 753.9286 584.1803 751.5204 584.1803 748.7001 C 584.1803 745.872 583.571 743.4638 582.3522 741.4755 C 581.1335 739.4872 579.3796 738.1923 577.0905 737.5907 L 576.8093 738.4931 C 578.6139 739.0946 579.9557 740.2821 580.8346 742.0556 C 581.7136 743.829 582.153 746.0829 582.153 748.8173 C 582.153 751.4579 581.7155 753.6513 580.8405 755.3974 C 579.9655 757.1435 578.61 758.3173 576.7741 758.9189 Z M 557.668 759.8212 L 557.9844 758.9189 C 556.1563 758.3173 554.8028 757.1435 553.9239 755.3974 C 553.045 753.6513 552.6055 751.4579 552.6055 748.8173 C 552.6055 746.0829 553.045 743.829 553.9239 742.0556 C 554.8028 740.2821 556.1446 739.0946 557.9493 738.4931 L 557.668 737.5907 C 555.3789 738.1923 553.625 739.4872 552.4063 741.4755 C 551.1875 743.4638 550.5782 745.872 550.5782 748.7001 C 550.5782 751.5204 551.1895 753.9286 552.4122 755.9247 C 553.6348 757.9208 555.3868 759.2196 557.668 759.8212 Z " fill-rule="evenodd"/>
<text xml:space="preserve" transform="matrix(.24 0 -0 .24 558.4288 841.92)" font-size="100" font-family="CambriaMath"><tspan y="-3299" x="0">"</tspan></text>
<text xml:space="preserve" transform="matrix(.24 0 -0 .24 592.9538 841.92)" font-size="100" font-family="CambriaMath"><tspan y="-3299" x="0">=</tspan></text>
<text xml:space="preserve" transform="matrix(.24 0 -0 .24 617.4938 841.92)" font-size="100" font-family="CambriaMath"><tspan y="-3299" x="0">f</tspan></text>
<text xml:space="preserve" transform="matrix(.24 0 -0 .24 624.7438 846.72)" font-size="75" font-family="CambriaMath"><tspan y="-3299" x="0">,</tspan></text>
<path transform="matrix(1,0,0,-1,0,792)" d="M 665.7555 759.8212 C 668.0368 759.2196 669.7887 757.9208 671.0114 755.9247 C 672.234 753.9286 672.8454 751.5204 672.8454 748.7001 C 672.8454 745.872 672.236 743.4638 671.0172 741.4755 C 669.7985 739.4872 668.0446 738.1923 665.7555 737.5907 L 665.4743 738.4931 C 667.2789 739.0946 668.6207 740.2821 669.4996 742.0556 C 670.3786 743.829 670.818 746.0829 670.818 748.8173 C 670.818 751.4579 670.3805 753.6513 669.5055 755.3974 C 668.6305 757.1435 667.275 758.3173 665.4391 758.9189 Z M 646.333 759.8212 L 646.6494 758.9189 C 644.8213 758.3173 643.4678 757.1435 642.5889 755.3974 C 641.71 753.6513 641.2705 751.4579 641.2705 748.8173 C 641.2705 746.0829 641.71 743.829 642.5889 742.0556 C 643.4678 740.2821 644.8096 739.0946 646.6143 738.4931 L 646.333 737.5907 C 644.0439 738.1923 642.29 739.4872 641.0713 741.4755 C 639.8525 743.4638 639.2432 745.872 639.2432 748.7001 C 639.2432 751.5204 639.8545 753.9286 641.0771 755.9247 C 642.2998 757.9208 644.0518 759.2196 646.333 759.8212 Z " fill-rule="evenodd"/>
<text xml:space="preserve" transform="matrix(.24 0 -0 .24 647.0938 841.92)" font-size="100" font-family="CambriaMath"><tspan y="-3299" x="0">"</tspan></text>
<text xml:space="preserve" transform="matrix(.24 0 -0 .24 674.9538 841.92)" font-size="100" font-family="CambriaMath"><tspan y="-3299" x="0">,</tspan></text>
<text xml:space="preserve" transform="matrix(.24 0 -0 .24 727.8288 841.92)" font-size="100" font-family="CambriaMath"><tspan y="-3299" x="0">"</tspan></text>
<text xml:space="preserve" transform="matrix(.24 0 -0 .24 752.3938 841.92)" font-size="100" font-family="CambriaMath"><tspan y="-3299" x="0">&#x2208;</tspan></text>
<text xml:space="preserve" transform="matrix(.24 0 -0 .24 774.0588 841.92)" font-size="100" font-family="CambriaMath"><tspan y="-3299" x="0">&#x03a9;</tspan></text>
<text xml:space="preserve" transform="matrix(.24 0 -0 .24 806.0588 841.92)" font-size="100" font-family="CambriaMath"><tspan y="-3299" x="0">(</tspan></text>
<text xml:space="preserve" transform="matrix(.24 0 -0 .24 816.0588 841.92)" font-size="100" font-family="CambriaMath"><tspan y="-3299" x="0">-</tspan></text>
<text xml:space="preserve" transform="matrix(.24 0 -0 .24 831.4888 841.92)" font-size="100" font-family="CambriaMath"><tspan y="-3299" x="0">)</tspan></text>
<text xml:space="preserve" transform="matrix(.24 0 -0 .24 22.24386 842.4)" font-size="116.6667" font-family="Calibri"><tspan y="-3299" x="0 55.06669 116.55004">Eqs</tspan></text>
<text xml:space="preserve" transform="matrix(.24 0 -0 .24 61.20886 842.4)" font-size="116.6667" font-family="Calibri"><tspan y="-3299" x="0">:</tspan></text>
<path transform="matrix(.00007874016,0,0,.00007874016,443.6052,14.530212)" stroke-width="12700" stroke-linecap="butt" stroke-dasharray="12700,12700" stroke-miterlimit="8" stroke-linejoin="miter" fill="none" stroke="#767171" d="M 0 0 L 1 689811 "/>
<path transform="matrix(1,0,0,-1,0,792)" d="M 24.3974 313.0832 C 24.3974 319.0858 29.26346 323.9519 35.26605 323.9519 L 352.8702 323.9519 C 358.8727 323.9519 363.7388 319.0858 363.7388 313.0832 L 363.7388 269.6101 C 363.7388 263.6075 358.8727 258.7414 352.8702 258.7414 L 35.26605 258.7414 C 29.26346 258.7414 24.3974 263.6075 24.3974 269.6101 Z " fill="#f8cbad"/>
<path transform="matrix(.00007874016,0,0,.00007874016,24.3974,468.0481)" stroke-width="12700" stroke-linecap="butt" stroke-dasharray="12700,12700" stroke-miterlimit="8" stroke-linejoin="miter" fill="none" stroke="#000000" d="M 0 138032 C 0 61799.02 61798.96 0 138031.8 0 L 4171604 0 C 4247837 0 4309636 61799.02 4309636 138032 L 4309636 690141 C 4309636 766374 4247837 828173 4171604 828173 L 138031.8 828173 C 61798.96 828173 0 766374 0 690141 Z "/>
<text xml:space="preserve" transform="matrix(.24 0 -0 .24 51.78571 1288.08)" font-size="100" font-family="Calibri"><tspan y="-3299" x="0 54.170003 102.14001 141.21 164.18001">Basis</tspan></text>
<text xml:space="preserve" transform="matrix(.24 0 -0 .24 105.9107 1288.08)" font-size="100" font-family="Calibri"><tspan y="-3299" x="0 79.69 126.670009 160.00002 194.90003 217.82003">matrix</tspan></text>
<text xml:space="preserve" transform="matrix(.24 0 -0 .24 173.9357 1288.08)" font-size="100" font-family="CambriaMath"><tspan y="-3299" x="0">Q</tspan></text>
<text xml:space="preserve" transform="matrix(.24 0 -0 .24 196.2257 1288.08)" font-size="100" font-family="CambriaMath"><tspan y="-3299" x="0">=</tspan></text>
<text xml:space="preserve" transform="matrix(.24 0 -0 .24 220.7657 1288.08)" font-size="100" font-family="CambriaMath"><tspan y="-3299" x="0">U</tspan></text>
<path transform="matrix(1,0,0,-1,0,792)" d="M 321.8274 313.5328 C 324.1087 312.9312 325.8606 311.6324 327.0833 309.6363 C 328.3059 307.6402 328.9173 305.232 328.9173 302.4117 C 328.9173 299.5836 328.3079 297.1754 327.0891 295.1871 C 325.8704 293.1988 324.1165 291.9039 321.8274 291.3023 L 321.5462 292.2047 C 323.3508 292.8062 324.6926 293.9937 325.5716 295.7672 C 326.4505 297.5406 326.8899 299.7945 326.8899 302.5289 C 326.8899 305.1695 326.4524 307.3629 325.5774 309.109 C 324.7024 310.855 323.3469 312.0289 321.511 312.6304 Z M 245.4649 313.5328 L 245.7813 312.6304 C 243.9532 312.0289 242.5997 310.855 241.7208 309.109 C 240.8419 307.3629 240.4024 305.1695 240.4024 302.5289 C 240.4024 299.7945 240.8419 297.5406 241.7208 295.7672 C 242.5997 293.9937 243.9415 292.8062 245.7462 292.2047 L 245.4649 291.3023 C 243.1759 291.9039 241.4219 293.1988 240.2032 295.1871 C 238.9844 297.1754 238.3751 299.5836 238.3751 302.4117 C 238.3751 305.232 238.9864 307.6402 240.2091 309.6363 C 241.4317 311.6324 243.1837 312.9312 245.4649 313.5328 Z " fill-rule="evenodd"/>
<text xml:space="preserve" transform="matrix(.24 0 -0 .24 246.2257 1288.08)" font-size="100" font-family="CambriaMath"><tspan y="-3299" x="0">1</tspan></text>
<text xml:space="preserve" transform="matrix(.24 0 -0 .24 259.4757 1288.08)" font-size="100" font-family="CambriaMath"><tspan y="-3299" x="0">:</tspan></text>
<text xml:space="preserve" transform="matrix(.24 0 -0 .24 269.8507 1288.08)" font-size="100" font-family="CambriaMath"><tspan y="-3299" x="0">2</tspan></text>
<text xml:space="preserve" transform="matrix(.24 0 -0 .24 283.6007 1293.12)" font-size="75" font-family="CambriaMath"><tspan y="-3299" x="0 38.542505">34</tspan></text>
<text xml:space="preserve" transform="matrix(.24 0 -0 .24 304.8157 1288.08)" font-size="100" font-family="CambriaMath"><tspan y="-3299" x="0">,</tspan></text>
<text xml:space="preserve" transform="matrix(.24 0 -0 .24 313.6907 1288.08)" font-size="100" font-family="CambriaMath"><tspan y="-3299" x="0">&#x2236;</tspan></text>
<text xml:space="preserve" transform="matrix(.24 0 -0 .24 118.6957 1312.0801)" font-size="75" font-family="CambriaMath"><tspan y="-3299" x="0">6</tspan></text>
<text xml:space="preserve" transform="matrix(.24 0 -0 .24 127.9657 1315.9199)" font-size="54.16666" font-family="CambriaMath"><tspan y="-3299" x="0">7</tspan></text>
<text xml:space="preserve" transform="matrix(.24 0 -0 .24 136.4657 1318.56)" font-size="45.83333" font-family="CambriaMath"><tspan y="-3299" x="0 25.519997">89</tspan></text>
<text xml:space="preserve" transform="matrix(.24 0 -0 .24 155.8807 1312.0801)" font-size="75" font-family="CambriaMath"><tspan y="-3299" x="0">&#x2265;</tspan></text>
<text xml:space="preserve" transform="matrix(.24 0 -0 .24 174.3807 1312.0801)" font-size="75" font-family="CambriaMath"><tspan y="-3299" x="0">;</tspan></text>
<text xml:space="preserve" transform="matrix(.24 0 -0 .24 183.3257 1312.0801)" font-size="75" font-family="CambriaMath"><tspan y="-3299" x="0">6</tspan></text>
<text xml:space="preserve" transform="matrix(.24 0 -0 .24 192.1807 1315.9199)" font-size="54.16666" font-family="CambriaMath"><tspan y="-3299" x="0">&#x003c;</tspan></text>
<text xml:space="preserve" transform="matrix(.24 0 -0 .24 205.5507 1312.0801)" font-size="75" font-family="CambriaMath"><tspan y="-3299" x="0">&#x003e;</tspan></text>
<text xml:space="preserve" transform="matrix(.24 0 -0 .24 224.0507 1312.0801)" font-size="75" font-family="CambriaMath"><tspan y="-3299" x="0">6</tspan></text>
<text xml:space="preserve" transform="matrix(.24 0 -0 .24 233.3207 1315.9199)" font-size="54.16666" font-family="CambriaMath"><tspan y="-3299" x="0">7</tspan></text>
<text xml:space="preserve" transform="matrix(.24 0 -0 .24 241.8207 1318.56)" font-size="45.83333" font-family="CambriaMath"><tspan y="-3299" x="0 25.519997">89</tspan></text>
<text xml:space="preserve" transform="matrix(.24 0 -0 .24 255.4907 1315.9199)" font-size="54.16666" font-family="CambriaMath"><tspan y="-3299" x="0">&#x003e;</tspan></text>
<text xml:space="preserve" transform="matrix(.24 0 -0 .24 264.9907 1315.9199)" font-size="54.16666" font-family="CambriaMath"><tspan y="-3299" x="0">&#x003c;</tspan></text>
<path transform="matrix(1,0,0,-1,0,792)" d="M 24.39748 397.3582 C 24.39748 401.2256 27.53258 404.3607 31.39992 404.3607 L 356.7364 404.3607 C 360.6037 404.3607 363.7388 401.2256 363.7388 397.3582 L 363.7388 369.3491 C 363.7388 365.4817 360.6037 362.3466 356.7364 362.3466 L 31.39992 362.3466 C 27.53258 362.3466 24.39748 365.4817 24.39748 369.3491 Z " fill="#f2f2f2"/>
<path transform="matrix(.00007874016,0,0,.00007874016,24.39748,387.6393)" stroke-width="12700" stroke-linecap="butt" stroke-dasharray="12700,12700" stroke-miterlimit="8" stroke-linejoin="miter" fill="none" stroke="#000000" d="M 0 88931.4 C 0 39815.95 39815.77 0 88931 0 L 4220704 0 C 4269819 0 4309635 39815.95 4309635 88931.4 L 4309635 444647.6 C 4309635 493763 4269819 533579 4220704 533579 L 88931 533579 C 39815.77 533579 0 493763 0 444647.6 Z "/>
<text xml:space="preserve" transform="matrix(.24 0 -0 .24 46.80063 1204.8)" font-size="100" font-family="CambriaMath"><tspan y="-3299" x="0">?</tspan></text>
<text xml:space="preserve" transform="matrix(.24 0 -0 .24 45.73563 1209.6)" font-size="100" font-family="CambriaMath"><tspan y="-3299" x="0">S</tspan></text>
<text xml:space="preserve" transform="matrix(.24 0 -0 .24 64.27563 1209.6)" font-size="100" font-family="CambriaMath"><tspan y="-3299" x="0">=</tspan></text>
<text xml:space="preserve" transform="matrix(.24 0 -0 .24 88.81563 1209.6)" font-size="100" font-family="CambriaMath"><tspan y="-3299" x="0">[</tspan></text>
<text xml:space="preserve" transform="matrix(.24 0 -0 .24 97.19062 1209.6)" font-size="100" font-family="CambriaMath"><tspan y="-3299" x="0">u</tspan></text>
<path transform="matrix(1,0,0,-1,0,792)" d="M 149.1023 392.2223 C 151.3836 391.6207 153.1355 390.3219 154.3582 388.3258 C 155.5809 386.3297 156.1922 383.9215 156.1922 381.1012 C 156.1922 378.273 155.5828 375.8648 154.3641 373.8766 C 153.1453 371.8883 151.3914 370.5934 149.1023 369.9918 L 148.8211 370.8941 C 150.6258 371.4957 151.9676 372.6832 152.8465 374.4566 C 153.7254 376.2301 154.1648 378.484 154.1648 381.2184 C 154.1648 383.859 153.7273 386.0523 152.8523 387.7984 C 151.9773 389.5445 150.6219 390.7184 148.7859 391.3199 Z M 119.6398 392.2223 L 119.9562 391.3199 C 118.1281 390.7184 116.7746 389.5445 115.8957 387.7984 C 115.0168 386.0523 114.5773 383.859 114.5773 381.2184 C 114.5773 378.484 115.0168 376.2301 115.8957 374.4566 C 116.7746 372.6832 118.1164 371.4957 119.9211 370.8941 L 119.6398 369.9918 C 117.3508 370.5934 115.5969 371.8883 114.3781 373.8766 C 113.1594 375.8648 112.55 378.273 112.55 381.1012 C 112.55 383.9215 113.1613 386.3297 114.384 388.3258 C 115.6066 390.3219 117.3586 391.6207 119.6398 392.2223 Z " fill-rule="evenodd"/>
<text xml:space="preserve" transform="matrix(.24 0 -0 .24 123.7256 1209.6)" font-size="100" font-family="CambriaMath"><tspan y="-3299" x="0">B</tspan></text>
<text xml:space="preserve" transform="matrix(.24 0 -0 .24 120.4006 1209.6)" font-size="100" font-family="CambriaMath"><tspan y="-3299" x="0">"</tspan></text>
<text xml:space="preserve" transform="matrix(.24 0 -0 .24 137.2206 1214.4)" font-size="75" font-family="CambriaMath"><tspan y="-3299" x="0">&#x003c;</tspan></text>
<text xml:space="preserve" transform="matrix(.24 0 -0 .24 168.8006 1209.6)" font-size="100" font-family="CambriaMath"><tspan y="-3299" x="0">C</tspan></text>
<path transform="matrix(1,0,0,-1,0,792)" d="M 222.3773 392.2223 C 224.6586 391.6207 226.4105 390.3219 227.6332 388.3258 C 228.8559 386.3297 229.4672 383.9215 229.4672 381.1012 C 229.4672 378.273 228.8578 375.8648 227.6391 373.8766 C 226.4203 371.8883 224.6664 370.5934 222.3773 369.9918 L 222.0961 370.8941 C 223.9008 371.4957 225.2426 372.6832 226.1215 374.4566 C 227.0004 376.2301 227.4398 378.484 227.4398 381.2184 C 227.4398 383.859 227.0023 386.0523 226.1273 387.7984 C 225.2523 389.5445 223.8969 390.7184 222.0609 391.3199 Z M 192.3598 392.2223 L 192.6762 391.3199 C 190.8481 390.7184 189.4946 389.5445 188.6157 387.7984 C 187.7368 386.0523 187.2973 383.859 187.2973 381.2184 C 187.2973 378.484 187.7368 376.2301 188.6157 374.4566 C 189.4946 372.6832 190.8364 371.4957 192.6411 370.8941 L 192.3598 369.9918 C 190.0708 370.5934 188.3169 371.8883 187.0981 373.8766 C 185.8794 375.8648 185.27 378.273 185.27 381.1012 C 185.27 383.9215 185.8813 386.3297 187.104 388.3258 C 188.3266 390.3219 190.0786 391.6207 192.3598 392.2223 Z " fill-rule="evenodd"/>
<text xml:space="preserve" transform="matrix(.24 0 -0 .24 196.4456 1209.6)" font-size="100" font-family="CambriaMath"><tspan y="-3299" x="0">B</tspan></text>
<text xml:space="preserve" transform="matrix(.24 0 -0 .24 193.1206 1209.6)" font-size="100" font-family="CambriaMath"><tspan y="-3299" x="0">"</tspan></text>
<text xml:space="preserve" transform="matrix(.24 0 -0 .24 210.4956 1214.4)" font-size="75" font-family="CambriaMath"><tspan y="-3299" x="0">D</tspan></text>
<text xml:space="preserve" transform="matrix(.24 0 -0 .24 240.8256 1209.6)" font-size="100" font-family="CambriaMath"><tspan y="-3299" x="0">&#x2026;</tspan></text>
<text xml:space="preserve" transform="matrix(.24 0 -0 .24 268.0756 1209.6)" font-size="100" font-family="CambriaMath"><tspan y="-3299" x="0">C</tspan></text>
<path transform="matrix(1,0,0,-1,0,792)" d="M 319.4523 392.2223 C 321.7336 391.6207 323.4855 390.3219 324.7082 388.3258 C 325.9308 386.3297 326.5422 383.9215 326.5422 381.1012 C 326.5422 378.273 325.9328 375.8648 324.714 373.8766 C 323.4953 371.8883 321.7414 370.5934 319.4523 369.9918 L 319.1711 370.8941 C 320.9758 371.4957 322.3176 372.6832 323.1965 374.4566 C 324.0754 376.2301 324.5148 378.484 324.5148 381.2184 C 324.5148 383.859 324.0773 386.0523 323.2023 387.7984 C 322.3273 389.5445 320.9719 390.7184 319.1359 391.3199 Z M 291.6348 392.2223 L 291.9512 391.3199 C 290.1231 390.7184 288.7696 389.5445 287.8907 387.7984 C 287.0118 386.0523 286.5723 383.859 286.5723 381.2184 C 286.5723 378.484 287.0118 376.2301 287.8907 374.4566 C 288.7696 372.6832 290.1114 371.4957 291.9161 370.8941 L 291.6348 369.9918 C 289.3458 370.5934 287.5919 371.8883 286.3731 373.8766 C 285.1544 375.8648 284.545 378.273 284.545 381.1012 C 284.545 383.9215 285.1563 386.3297 286.379 388.3258 C 287.6016 390.3219 289.3536 391.6207 291.6348 392.2223 Z " fill-rule="evenodd"/>
<text xml:space="preserve" transform="matrix(.24 0 -0 .24 295.7206 1209.6)" font-size="100" font-family="CambriaMath"><tspan y="-3299" x="0">B</tspan></text>
<text xml:space="preserve" transform="matrix(.24 0 -0 .24 292.3956 1209.6)" font-size="100" font-family="CambriaMath"><tspan y="-3299" x="0">"</tspan></text>
<text xml:space="preserve" transform="matrix(.24 0 -0 .24 308.8356 1214.4)" font-size="75" font-family="CambriaMath"><tspan y="-3299" x="0">F</tspan></text>
<text xml:space="preserve" transform="matrix(.24 0 -0 .24 328.6506 1209.6)" font-size="100" font-family="CambriaMath"><tspan y="-3299" x="0">]</tspan></text>
<path transform="matrix(1,0,0,-1,0,792)" d="M 431.6242 394.6917 C 431.6242 398.559 434.7593 401.6941 438.6266 401.6941 L 813.4368 401.6941 C 817.3041 401.6941 820.4392 398.559 820.4392 394.6917 L 820.4392 366.6824 C 820.4392 362.8151 817.3041 359.68 813.4368 359.68 L 438.6266 359.68 C 434.7593 359.68 431.6242 362.8151 431.6242 366.6824 Z " fill="#f2f2f2"/>
<path transform="matrix(.00007874016,0,0,.00007874016,431.6242,390.3059)" stroke-width="12700" stroke-linecap="butt" stroke-dasharray="12700,12700" stroke-miterlimit="8" stroke-linejoin="miter" fill="none" stroke="#000000" d="M 0 88930.74 C 0 39815.65 39815.6 0 88930.64 0 L 4849020 0 C 4898135 0 4937951 39815.65 4937951 88930.74 L 4937951 444648.3 C 4937951 493763.4 4898135 533579 4849020 533579 L 88930.64 533579 C 39815.6 533579 0 493763.4 0 444648.3 Z "/>
<text xml:space="preserve" transform="matrix(.24 0 -0 .24 456.4766 1206.96)" font-size="100" font-family="CambriaMath"><tspan y="-3299" x="0">H</tspan></text>
<text xml:space="preserve" transform="matrix(.24 0 -0 .24 450.1566 1211.76)" font-size="100" font-family="CambriaMath"><tspan y="-3299" x="0">&#x2112;</tspan></text>
<text xml:space="preserve" transform="matrix(.24 0 -0 .24 471.7066 1211.76)" font-size="100" font-family="CambriaMath"><tspan y="-3299" x="0">=</tspan></text>
<path transform="matrix(1,0,0,-1,0,792)" d="M 788.514 393.2912 L 793.8577 393.2912 L 793.8577 364.299 L 788.514 364.299 L 788.514 365.2599 L 791.678 365.2599 L 791.678 392.3302 L 788.514 392.3302 Z M 498.9185 393.2912 L 504.2623 393.2912 L 504.2623 392.3302 L 501.0982 392.3302 L 501.0982 365.2599 L 504.2623 365.2599 L 504.2623 364.299 L 498.9185 364.299 Z " fill-rule="evenodd"/>
<text xml:space="preserve" transform="matrix(.24 0 -0 .24 504.7916 1211.76)" font-size="100" font-family="CambriaMath"><tspan y="-3299" x="0 48.44 97.38">vec</tspan></text>
<path transform="matrix(1,0,0,-1,0,792)" d="M 611.3613 393.2912 C 613.7988 392.6505 615.6777 390.9904 616.998 388.3107 C 618.3183 385.631 618.9785 382.4591 618.9785 378.7951 C 618.9785 375.131 618.3183 371.9591 616.998 369.2794 C 615.6777 366.5997 613.7988 364.9396 611.3613 364.299 L 611.0684 365.2599 C 612.959 365.9708 614.3906 367.5197 615.3633 369.9064 C 616.3359 372.2931 616.8223 375.2521 616.8223 378.7833 C 616.8223 382.3224 616.3359 385.2872 615.3633 387.6779 C 614.3906 390.0685 612.959 391.6193 611.0684 392.3302 Z M 548.5182 393.2912 L 548.8112 392.3302 C 546.9205 391.6193 545.4889 390.0685 544.5163 387.6779 C 543.5436 385.2872 543.0573 382.3224 543.0573 378.7833 C 543.0573 375.2521 543.5436 372.2931 544.5163 369.9064 C 545.4889 367.5197 546.9205 365.9708 548.8112 365.2599 L 548.5182 364.299 C 546.0807 364.9396 544.2018 366.5997 542.8815 369.2794 C 541.5612 371.9591 540.901 375.131 540.901 378.7951 C 540.901 382.4591 541.5612 385.631 542.8815 388.3107 C 544.2018 390.9904 546.0807 392.6505 548.5182 393.2912 Z " fill-rule="evenodd"/>
<text xml:space="preserve" transform="matrix(.24 0 -0 .24 549.5716 1211.76)" font-size="100" font-family="CambriaMath"><tspan y="-3299" x="0">L</tspan></text>
<path transform="matrix(1,0,0,-1,0,792)" d="M 601.1084 389.9082 C 603.3896 389.3066 605.1416 388.0078 606.3642 386.0117 C 607.5869 384.0156 608.1982 381.6074 608.1982 378.7871 C 608.1982 375.959 607.5888 373.5508 606.3701 371.5625 C 605.1513 369.5742 603.3974 368.2793 601.1084 367.6777 L 600.8271 368.5801 C 602.6318 369.1816 603.9736 370.3691 604.8525 372.1426 C 605.7314 373.916 606.1709 376.1699 606.1709 378.9043 C 606.1709 381.5449 605.7334 383.7383 604.8584 385.4844 C 603.9834 387.2304 602.6279 388.4043 600.792 389.0058 Z M 571.6459 389.9082 L 571.9623 389.0058 C 570.1341 388.4043 568.7806 387.2304 567.9017 385.4844 C 567.0228 383.7383 566.5834 381.5449 566.5834 378.9043 C 566.5834 376.1699 567.0228 373.916 567.9017 372.1426 C 568.7806 370.3691 570.1224 369.1816 571.9271 368.5801 L 571.6459 367.6777 C 569.3568 368.2793 567.6029 369.5742 566.3841 371.5625 C 565.1654 373.5508 564.556 375.959 564.556 378.7871 C 564.556 381.6074 565.1673 384.0156 566.39 386.0117 C 567.6126 388.0078 569.3646 389.3066 571.6459 389.9082 Z " fill-rule="evenodd"/>
<text xml:space="preserve" transform="matrix(.24 0 -0 .24 575.7316 1211.76)" font-size="100" font-family="CambriaMath"><tspan y="-3299" x="0">B</tspan></text>
<text xml:space="preserve" transform="matrix(.24 0 -0 .24 572.4067 1211.76)" font-size="100" font-family="CambriaMath"><tspan y="-3299" x="0">"</tspan></text>
<text xml:space="preserve" transform="matrix(.24 0 -0 .24 589.2266 1216.8)" font-size="75" font-family="CambriaMath"><tspan y="-3299" x="0">&#x003c;</tspan></text>
<text xml:space="preserve" transform="matrix(.24 0 -0 .24 640.8366 1211.76)" font-size="100" font-family="CambriaMath"><tspan y="-3299" x="0">&#x2026;</tspan></text>
<text xml:space="preserve" transform="matrix(.24 0 -0 .24 673.3366 1211.76)" font-size="100" font-family="CambriaMath"><tspan y="-3299" x="0 48.44 97.38">vec</tspan></text>
<path transform="matrix(1,0,0,-1,0,792)" d="M 778.2613 393.2912 C 780.6988 392.6505 782.5777 390.9904 783.898 388.3107 C 785.2183 385.631 785.8785 382.4591 785.8785 378.7951 C 785.8785 375.131 785.2183 371.9591 783.898 369.2794 C 782.5777 366.5997 780.6988 364.9396 778.2613 364.299 L 777.9683 365.2599 C 779.859 365.9708 781.2906 367.5197 782.2633 369.9064 C 783.2359 372.2931 783.7222 375.2521 783.7222 378.7833 C 783.7222 382.3224 783.2359 385.2872 782.2633 387.6779 C 781.2906 390.0685 779.859 391.6193 777.9683 392.3302 Z M 717.0632 393.2912 L 717.3562 392.3302 C 715.4655 391.6193 714.0339 390.0685 713.0612 387.6779 C 712.0886 385.2872 711.6022 382.3224 711.6022 378.7833 C 711.6022 375.2521 712.0886 372.2931 713.0612 369.9064 C 714.0339 367.5197 715.4655 365.9708 717.3562 365.2599 L 717.0632 364.299 C 714.6257 364.9396 712.7468 366.5997 711.4265 369.2794 C 710.1062 371.9591 709.446 375.131 709.446 378.7951 C 709.446 382.4591 710.1062 385.631 711.4265 388.3107 C 712.7468 390.9904 714.6257 392.6505 717.0632 393.2912 Z " fill-rule="evenodd"/>
<text xml:space="preserve" transform="matrix(.24 0 -0 .24 718.1166 1211.76)" font-size="100" font-family="CambriaMath"><tspan y="-3299" x="0">L</tspan></text>
<path transform="matrix(1,0,0,-1,0,792)" d="M 768.0083 389.9082 C 770.2896 389.3066 772.0415 388.0078 773.2642 386.0117 C 774.4869 384.0156 775.0982 381.6074 775.0982 378.7871 C 775.0982 375.959 774.4888 373.5508 773.2701 371.5625 C 772.0513 369.5742 770.2974 368.2793 768.0083 367.6777 L 767.7271 368.5801 C 769.5318 369.1816 770.8736 370.3691 771.7525 372.1426 C 772.6314 373.916 773.0708 376.1699 773.0708 378.9043 C 773.0708 381.5449 772.6333 383.7383 771.7583 385.4844 C 770.8833 387.2304 769.5279 388.4043 767.6919 389.0058 Z M 740.1908 389.9082 L 740.5072 389.0058 C 738.6791 388.4043 737.3256 387.2304 736.4467 385.4844 C 735.5678 383.7383 735.1283 381.5449 735.1283 378.9043 C 735.1283 376.1699 735.5678 373.916 736.4467 372.1426 C 737.3256 370.3691 738.6674 369.1816 740.4721 368.5801 L 740.1908 367.6777 C 737.9018 368.2793 736.1479 369.5742 734.9291 371.5625 C 733.7104 373.5508 733.101 375.959 733.101 378.7871 C 733.101 381.6074 733.7123 384.0156 734.935 386.0117 C 736.1576 388.0078 737.9096 389.3066 740.1908 389.9082 Z " fill-rule="evenodd"/>
<text xml:space="preserve" transform="matrix(.24 0 -0 .24 744.2766 1211.76)" font-size="100" font-family="CambriaMath"><tspan y="-3299" x="0">B</tspan></text>
<text xml:space="preserve" transform="matrix(.24 0 -0 .24 740.9516 1211.76)" font-size="100" font-family="CambriaMath"><tspan y="-3299" x="0">"</tspan></text>
<text xml:space="preserve" transform="matrix(.24 0 -0 .24 757.3916 1216.8)" font-size="75" font-family="CambriaMath"><tspan y="-3299" x="0">F</tspan></text>
<path transform="matrix(1,0,0,-1,0,792)" d="M 431.6242 311.109 C 431.6242 314.9425 434.7318 318.0502 438.5654 318.0502 L 813.498 318.0502 C 817.3315 318.0502 820.4392 314.9425 820.4392 311.109 L 820.4392 283.3438 C 820.4392 279.5103 817.3315 276.4026 813.498 276.4026 L 438.5654 276.4026 C 434.7318 276.4026 431.6242 279.5103 431.6242 283.3438 Z " fill="#f2f2f2"/>
<path transform="matrix(.00007874016,0,0,.00007874016,431.6242,473.9498)" stroke-width="12700" stroke-linecap="butt" stroke-dasharray="12700,12700" stroke-miterlimit="8" stroke-linejoin="miter" fill="none" stroke="#000000" d="M 0 88153.1 C 0 39467.49 39467.45 0 88153.01 0 L 4849798 0 C 4898484 0 4937951 39467.49 4937951 88153.1 L 4937951 440770.9 C 4937951 489456.5 4898484 528924 4849798 528924 L 88153.01 528924 C 39467.45 528924 0 489456.5 0 440770.9 Z "/>
<text xml:space="preserve" transform="matrix(.24 0 -0 .24 583.1692 1295.76)" font-size="100" font-family="CambriaMath"><tspan y="-3299" x="0">&#x2112;</tspan></text>
<text xml:space="preserve" transform="matrix(.24 0 -0 .24 604.7191 1295.76)" font-size="100" font-family="CambriaMath"><tspan y="-3299" x="0">&#x2248;</tspan></text>
<text xml:space="preserve" transform="matrix(.24 0 -0 .24 635.3291 1290.96)" font-size="100" font-family="CambriaMath"><tspan y="-3299" x="0">H</tspan></text>
<text xml:space="preserve" transform="matrix(.24 0 -0 .24 629.0092 1295.76)" font-size="100" font-family="CambriaMath"><tspan y="-3299" x="0">&#x2112;</tspan></text>
<text xml:space="preserve" transform="matrix(.24 0 -0 .24 643.8941 1295.76)" font-size="100" font-family="CambriaMath"><tspan y="-3299" x="0">M</tspan></text>
<path transform="matrix(1,0,0,-1,0,792)" d="M 431.6242 229.4662 C 431.6242 232.8702 434.3836 235.6297 437.7876 235.6297 L 814.2757 235.6297 C 817.6797 235.6297 820.4392 232.8702 820.4392 229.4662 L 820.4392 204.8118 C 820.4392 201.4078 817.6797 198.6483 814.2757 198.6483 L 437.7876 198.6483 C 434.3836 198.6483 431.6242 201.4078 431.6242 204.8118 Z " fill="#f2f2f2"/>
<path transform="matrix(.00007874016,0,0,.00007874016,431.6242,556.3703)" stroke-width="12700" stroke-linecap="butt" stroke-dasharray="12700,12700" stroke-miterlimit="8" stroke-linejoin="miter" fill="none" stroke="#000000" d="M 0 78276.44 C 0 35045.55 35045.37 0 78276.03 0 L 4859675 0 C 4902906 0 4937951 35045.55 4937951 78276.44 L 4937951 391387.6 C 4937951 434618.5 4902906 469664 4859675 469664 L 78276.03 469664 C 35045.37 469664 0 434618.5 0 391387.6 Z "/>
<text xml:space="preserve" transform="matrix(.24 0 -0 .24 446.3242 1375.6799)" font-size="100" font-family="CambriaMath"><tspan y="-3299" x="0">&#x2112;</tspan></text>
<path transform="matrix(1,0,0,-1,0,792)" d="M 510.5559 225.9951 C 512.8371 225.3935 514.5891 224.0947 515.8117 222.0986 C 517.0344 220.1025 517.6457 217.6943 517.6457 214.874 C 517.6457 212.0459 517.0363 209.6377 515.8176 207.6494 C 514.5988 205.6611 512.8449 204.3662 510.5559 203.7646 L 510.2746 204.667 C 512.0793 205.2685 513.4211 206.456 514.3 208.2295 C 515.1789 210.0029 515.6184 212.2568 515.6184 214.9912 C 515.6184 217.6318 515.1809 219.8252 514.3059 221.5713 C 513.4309 223.3174 512.0754 224.4912 510.2395 225.0928 Z M 470.4084 225.9951 L 470.7248 225.0928 C 468.8966 224.4912 467.5431 223.3174 466.6642 221.5713 C 465.7853 219.8252 465.3459 217.6318 465.3459 214.9912 C 465.3459 212.2568 465.7853 210.0029 466.6642 208.2295 C 467.5431 206.456 468.8849 205.2685 470.6896 204.667 L 470.4084 203.7646 C 468.1193 204.3662 466.3654 205.6611 465.1466 207.6494 C 463.9279 209.6377 463.3185 212.0459 463.3185 214.874 C 463.3185 217.6943 463.9299 220.1025 465.1525 222.0986 C 466.3752 224.0947 468.1271 225.3935 470.4084 225.9951 Z " fill-rule="evenodd"/>
<text xml:space="preserve" transform="matrix(.24 0 -0 .24 471.1691 1375.6799)" font-size="100" font-family="CambriaMath"><tspan y="-3299" x="0">O</tspan></text>
<text xml:space="preserve" transform="matrix(.24 0 -0 .24 490.5442 1375.6799)" font-size="100" font-family="CambriaMath"><tspan y="-3299" x="0">,</tspan></text>
<text xml:space="preserve" transform="matrix(.24 0 -0 .24 499.4192 1375.6799)" font-size="100" font-family="CambriaMath"><tspan y="-3299" x="0">:</tspan></text>
<text xml:space="preserve" transform="matrix(.24 0 -0 .24 526.4192 1375.6799)" font-size="100" font-family="CambriaMath"><tspan y="-3299" x="0">&#x2248;</tspan></text>
<text xml:space="preserve" transform="matrix(.24 0 -0 .24 557.0291 1370.88)" font-size="100" font-family="CambriaMath"><tspan y="-3299" x="0">H</tspan></text>
<text xml:space="preserve" transform="matrix(.24 0 -0 .24 550.7092 1375.6799)" font-size="100" font-family="CambriaMath"><tspan y="-3299" x="0">&#x2112;</tspan></text>
<text xml:space="preserve" transform="matrix(.24 0 -0 .24 565.5941 1375.6799)" font-size="100" font-family="CambriaMath"><tspan y="-3299" x="0">(</tspan></text>
<text xml:space="preserve" transform="matrix(.24 0 -0 .24 575.5942 1375.6799)" font-size="100" font-family="CambriaMath"><tspan y="-3299" x="0">O</tspan></text>
<text xml:space="preserve" transform="matrix(.24 0 -0 .24 594.9691 1375.6799)" font-size="100" font-family="CambriaMath"><tspan y="-3299" x="0">,</tspan></text>
<text xml:space="preserve" transform="matrix(.24 0 -0 .24 599.8441 1375.6799)" font-size="100" font-family="CambriaMath"><tspan y="-3299" x="0">:</tspan></text>
<text xml:space="preserve" transform="matrix(.24 0 -0 .24 610.2191 1375.6799)" font-size="100" font-family="CambriaMath"><tspan y="-3299" x="0">)</tspan></text>
<text xml:space="preserve" transform="matrix(.24 0 -0 .24 620.2192 1375.6799)" font-size="100" font-family="CambriaMath"><tspan y="-3299" x="0">M</tspan></text>
<text xml:space="preserve" transform="matrix(.24 0 -0 .24 646.5091 1375.6799)" font-size="100" font-family="CambriaMath"><tspan y="-3299" x="0">&#x27f6;</tspan></text>
<text xml:space="preserve" transform="matrix(.24 0 -0 .24 681.4241 1375.6799)" font-size="100" font-family="CambriaMath"><tspan y="-3299" x="0">M</tspan></text>
<text xml:space="preserve" transform="matrix(.24 0 -0 .24 706.4242 1375.6799)" font-size="75" font-family="Calibri"><tspan y="-3299" x="0 22.920002 40.14 77.61 113.58 141.90001">(least</tspan></text>
<text xml:space="preserve" transform="matrix(.24 0 -0 .24 750.5992 1375.6799)" font-size="75" font-family="Calibri"><tspan y="-3299" x="0 29.167504 68.76001 108.35251 144.27 169.3125 206.80501">square)</tspan></text>
<path transform="matrix(1,0,0,-1,0,792)" d="M 431.6242 139.6903 C 431.6242 143.1892 434.4606 146.0257 437.9596 146.0257 L 570.946 146.0257 C 574.445 146.0257 577.2814 143.1892 577.2814 139.6903 L 577.2814 114.3497 C 577.2814 110.8508 574.445 108.0143 570.946 108.0143 L 437.9596 108.0143 C 434.4606 108.0143 431.6242 110.8508 431.6242 114.3497 Z " fill="#f2f2f2"/>
<path transform="matrix(.00007874016,0,0,.00007874016,431.6242,645.9743)" stroke-width="12700" stroke-linecap="butt" stroke-dasharray="12700,12700" stroke-miterlimit="8" stroke-linejoin="miter" fill="none" stroke="#000000" d="M 0 80459.69 C 0 36023.03 36022.92 0 80459.44 0 L 1769387 0 C 1813824 0 1849847 36023.03 1849847 80459.69 L 1849847 402284.3 C 1849847 446721 1813824 482744 1769387 482744 L 80459.44 482744 C 36022.92 482744 0 446721 0 402284.3 Z "/>
<text xml:space="preserve" transform="matrix(.24 0 -0 .24 440.5703 1465.9199)" font-size="100" font-family="CambriaMath"><tspan y="-3299" x="0">&#x2112;</tspan></text>
<text xml:space="preserve" transform="matrix(.24 0 -0 .24 455.2603 1470.72)" font-size="75" font-family="CambriaMath"><tspan y="-3299" x="0 38.542505">34</tspan></text>
<text xml:space="preserve" transform="matrix(.24 0 -0 .24 483.1403 1465.9199)" font-size="100" font-family="CambriaMath"><tspan y="-3299" x="0">&#x2248;</tspan></text>
<text xml:space="preserve" transform="matrix(.24 0 -0 .24 513.7503 1461.12)" font-size="100" font-family="CambriaMath"><tspan y="-3299" x="0">H</tspan></text>
<text xml:space="preserve" transform="matrix(.24 0 -0 .24 507.4302 1465.9199)" font-size="100" font-family="CambriaMath"><tspan y="-3299" x="0">&#x2112;</tspan></text>
<text xml:space="preserve" transform="matrix(.24 0 -0 .24 522.1203 1470.72)" font-size="75" font-family="CambriaMath"><tspan y="-3299" x="0 38.542505">34</tspan></text>
<text xml:space="preserve" transform="matrix(.24 0 -0 .24 543.3353 1465.9199)" font-size="100" font-family="CambriaMath"><tspan y="-3299" x="0">M</tspan></text>
<path transform="matrix(1,0,0,-1,0,792)" d="M 699.4538 142.1122 C 699.4538 146.2798 702.8324 149.6584 707 149.6584 L 812.893 149.6584 C 817.0607 149.6584 820.4392 146.2798 820.4392 142.1122 L 820.4392 111.9278 C 820.4392 107.7601 817.0607 104.3816 812.893 104.3816 L 707 104.3816 C 702.8324 104.3816 699.4538 107.7601 699.4538 111.9278 Z " fill="#f8cbad"/>
<path transform="matrix(.00007874016,0,0,.00007874016,699.4538,642.3416)" stroke-width="12700" stroke-linecap="butt" stroke-dasharray="12700,12700" stroke-miterlimit="8" stroke-linejoin="miter" fill="none" stroke="#000000" d="M 0 95837.4 C 0 42907.87 42907.81 0 95837.27 0 L 1440678 0 C 1493607 0 1536515 42907.87 1536515 95837.4 L 1536515 479178.6 C 1536515 532108.1 1493607 575016 1440678 575016 L 95837.27 575016 C 42907.81 575016 0 532108.1 0 479178.6 Z "/>
<text xml:space="preserve" transform="matrix(.24 0 -0 .24 708.664 1466.88)" font-size="100" font-family="CambriaMath"><tspan y="-3299" x="0">Q</tspan></text>
<text xml:space="preserve" transform="matrix(.24 0 -0 .24 724.289 1458.24)" font-size="100" font-family="CambriaMath"><tspan y="-3299" x="0">T</tspan></text>
<text xml:space="preserve" transform="matrix(.24 0 -0 .24 739.534 1466.88)" font-size="100" font-family="CambriaMath"><tspan y="-3299" x="0">L</tspan></text>
<path transform="matrix(1,0,0,-1,0,792)" d="M 781.0307 134.8036 C 783.312 134.202 785.0639 132.9032 786.2866 130.9071 C 787.5092 128.911 788.1205 126.5028 788.1205 123.6825 C 788.1205 120.8544 787.5112 118.4462 786.2924 116.4579 C 785.0737 114.4696 783.3198 113.1747 781.0307 112.5731 L 780.7495 113.4755 C 782.5541 114.077 783.8959 115.2645 784.7748 117.038 C 785.6537 118.8114 786.0932 121.0653 786.0932 123.7997 C 786.0932 126.4403 785.6557 128.6337 784.7807 130.3798 C 783.9057 132.1259 782.5502 133.2997 780.7143 133.9013 Z M 761.6082 134.8036 L 761.9246 133.9013 C 760.0965 133.2997 758.743 132.1259 757.8641 130.3798 C 756.9852 128.6337 756.5457 126.4403 756.5457 123.7997 C 756.5457 121.0653 756.9852 118.8114 757.8641 117.038 C 758.743 115.2645 760.0848 114.077 761.8895 113.4755 L 761.6082 112.5731 C 759.3191 113.1747 757.5652 114.4696 756.3465 116.4579 C 755.1277 118.4462 754.5184 120.8544 754.5184 123.6825 C 754.5184 126.5028 755.1297 128.911 756.3523 130.9071 C 757.575 132.9032 759.327 134.202 761.6082 134.8036 Z " fill-rule="evenodd"/>
<text xml:space="preserve" transform="matrix(.24 0 -0 .24 762.3689 1466.88)" font-size="100" font-family="CambriaMath"><tspan y="-3299" x="0">"</tspan></text>
<text xml:space="preserve" transform="matrix(.24 0 -0 .24 790.2289 1466.88)" font-size="100" font-family="CambriaMath"><tspan y="-3299" x="0">Q</tspan></text>
<path transform="matrix(1,0,0,-1,0,792)" d="M 161.6172 684.3149 C 161.6172 688.3639 164.8996 691.6464 168.9486 691.6464 L 630.4147 691.6464 C 634.4638 691.6464 637.7462 688.3639 637.7462 684.3149 L 637.7462 654.9909 C 637.7462 650.9418 634.4638 647.6594 630.4147 647.6594 L 168.9486 647.6594 C 164.8996 647.6594 161.6172 650.9418 161.6172 654.9909 Z " fill="#f2f2f2"/>
<path transform="matrix(.00007874016,0,0,.00007874016,161.6172,100.35358)" stroke-width="12700" stroke-linecap="butt" stroke-dasharray="12700,12700" stroke-miterlimit="8" stroke-linejoin="miter" fill="none" stroke="#000000" d="M 0 93110.24 C 0 41686.87 41686.62 0 93109.68 0 L 5953729 0 C 6005153 0 6046839 41686.87 6046839 93110.24 L 6046839 465524.7 C 6046839 516948.1 6005153 558635 5953729 558635 L 93109.68 558635 C 41686.62 558635 0 516948.1 0 465524.7 Z "/>
<text xml:space="preserve" transform="matrix(.24 0 -0 .24 281.1242 922.8)" font-size="100" font-family="Calibri"><tspan y="-3299" x="0 45.83 98.46001 121.39001 165.72">Solve</tspan></text>
<text xml:space="preserve" transform="matrix(.24 0 -0 .24 338.2642 922.8)" font-size="100" font-family="Calibri"><tspan y="-3299" x="0 30.210001 83.32001">(C)</tspan></text>
<text xml:space="preserve" transform="matrix(.24 0 -0 .24 370.8892 922.8)" font-size="100" font-family="Calibri"><tspan y="-3299" x="0 28.62 81.240009">for</tspan></text>
<text xml:space="preserve" transform="matrix(.24 0 -0 .24 404.1342 922.8)" font-size="100" font-family="Calibri"><tspan y="-3299" x="0 50.000005 97.90001 140.1">each</tspan></text>
<text xml:space="preserve" transform="matrix(.24 0 -0 .24 455.7592 922.8)" font-size="100" font-family="CambriaMath"><tspan y="-3299" x="0">"</tspan></text>
<text xml:space="preserve" transform="matrix(.24 0 -0 .24 480.3242 922.8)" font-size="100" font-family="CambriaMath"><tspan y="-3299" x="0">&#x2208;</tspan></text>
<text xml:space="preserve" transform="matrix(.24 0 -0 .24 501.9892 922.8)" font-size="100" font-family="CambriaMath"><tspan y="-3299" x="0">&#x03a9;</tspan></text>
<path transform="matrix(1,0,0,-1,0,792)" d="M 161.6172 600.6842 C 161.6172 604.7002 164.8728 607.9558 168.8887 607.9558 L 630.4746 607.9558 C 634.4906 607.9558 637.7462 604.7002 637.7462 600.6842 L 637.7462 571.5991 C 637.7462 567.583 634.4906 564.3274 630.4746 564.3274 L 168.8887 564.3274 C 164.8728 564.3274 161.6172 567.583 161.6172 571.5991 Z " fill="#f2f2f2"/>
<path transform="matrix(.00007874016,0,0,.00007874016,161.6172,184.04419)" stroke-width="12700" stroke-linecap="butt" stroke-dasharray="12700,12700" stroke-miterlimit="8" stroke-linejoin="miter" fill="none" stroke="#000000" d="M 0 92350.14 C 0 41346.56 41346.14 0 92349.2 0 L 5954490 0 C 6005493 0 6046839 41346.56 6046839 92350.14 L 6046839 461730.8 C 6046839 512734.4 6005493 554081 5954490 554081 L 92349.2 554081 C 41346.14 554081 0 512734.4 0 461730.8 Z "/>
<text xml:space="preserve" transform="matrix(.24 0 -0 .24 226.4616 1005.12)" font-size="100" font-family="CambriaMath"><tspan y="-3299" x="0">S</tspan></text>
<text xml:space="preserve" transform="matrix(.24 0 -0 .24 238.3366 1009.92)" font-size="75" font-family="CambriaMath"><tspan y="-3299" x="0">,</tspan></text>
<text xml:space="preserve" transform="matrix(.24 0 -0 .24 257.3916 1005.12)" font-size="100" font-family="CambriaMath"><tspan y="-3299" x="0">=</tspan></text>
<text xml:space="preserve" transform="matrix(.24 0 -0 .24 281.9316 1005.12)" font-size="100" font-family="CambriaMath"><tspan y="-3299" x="0">[</tspan></text>
<text xml:space="preserve" transform="matrix(.24 0 -0 .24 290.3067 1005.12)" font-size="100" font-family="CambriaMath"><tspan y="-3299" x="0">u</tspan></text>
<text xml:space="preserve" transform="matrix(.24 0 -0 .24 303.5566 1009.92)" font-size="75" font-family="CambriaMath"><tspan y="-3299" x="0">,</tspan></text>
<path transform="matrix(1,0,0,-1,0,792)" d="M 354.6083 596.6227 C 356.8896 596.0212 358.6416 594.7223 359.8642 592.7262 C 361.0869 590.7302 361.6982 588.3219 361.6982 585.5016 C 361.6982 582.6735 361.0888 580.2653 359.8701 578.277 C 358.6513 576.2887 356.8974 574.9938 354.6083 574.3923 L 354.3271 575.2946 C 356.1318 575.8962 357.4736 577.0837 358.3525 578.8571 C 359.2314 580.6305 359.6708 582.8844 359.6708 585.6188 C 359.6708 588.2594 359.2333 590.4528 358.3583 592.1989 C 357.4833 593.945 356.1279 595.1188 354.2919 595.7204 Z M 325.1459 596.6227 L 325.4623 595.7204 C 323.6341 595.1188 322.2806 593.945 321.4017 592.1989 C 320.5228 590.4528 320.0834 588.2594 320.0834 585.6188 C 320.0834 582.8844 320.5228 580.6305 321.4017 578.8571 C 322.2806 577.0837 323.6224 575.8962 325.4271 575.2946 L 325.1459 574.3923 C 322.8568 574.9938 321.1029 576.2887 319.8841 578.277 C 318.6654 580.2653 318.056 582.6735 318.056 585.5016 C 318.056 588.3219 318.6673 590.7302 319.89 592.7262 C 321.1127 594.7223 322.8646 596.0212 325.1459 596.6227 Z " fill-rule="evenodd"/>
<text xml:space="preserve" transform="matrix(.24 0 -0 .24 325.9066 1005.12)" font-size="100" font-family="CambriaMath"><tspan y="-3299" x="0">"</tspan></text>
<text xml:space="preserve" transform="matrix(.24 0 -0 .24 342.7266 1009.92)" font-size="75" font-family="CambriaMath"><tspan y="-3299" x="0">&#x003c;</tspan></text>
<text xml:space="preserve" transform="matrix(.24 0 -0 .24 374.3067 1005.12)" font-size="100" font-family="CambriaMath"><tspan y="-3299" x="0">u</tspan></text>
<text xml:space="preserve" transform="matrix(.24 0 -0 .24 387.5566 1009.92)" font-size="75" font-family="CambriaMath"><tspan y="-3299" x="0">,</tspan></text>
<path transform="matrix(1,0,0,-1,0,792)" d="M 439.1634 596.6227 C 441.4446 596.0212 443.1966 594.7223 444.4192 592.7262 C 445.6419 590.7302 446.2532 588.3219 446.2532 585.5016 C 446.2532 582.6735 445.6438 580.2653 444.4251 578.277 C 443.2063 576.2887 441.4524 574.9938 439.1634 574.3923 L 438.8821 575.2946 C 440.6868 575.8962 442.0286 577.0837 442.9075 578.8571 C 443.7864 580.6305 444.2258 582.8844 444.2258 585.6188 C 444.2258 588.2594 443.7883 590.4528 442.9133 592.1989 C 442.0384 593.945 440.6829 595.1188 438.8469 595.7204 Z M 409.1459 596.6227 L 409.4623 595.7204 C 407.6341 595.1188 406.2806 593.945 405.4017 592.1989 C 404.5228 590.4528 404.0834 588.2594 404.0834 585.6188 C 404.0834 582.8844 404.5228 580.6305 405.4017 578.8571 C 406.2806 577.0837 407.6224 575.8962 409.4271 575.2946 L 409.1459 574.3923 C 406.8568 574.9938 405.1029 576.2887 403.8841 578.277 C 402.6654 580.2653 402.056 582.6735 402.056 585.5016 C 402.056 588.3219 402.6673 590.7302 403.89 592.7262 C 405.1126 594.7223 406.8646 596.0212 409.1459 596.6227 Z " fill-rule="evenodd"/>
<text xml:space="preserve" transform="matrix(.24 0 -0 .24 409.9066 1005.12)" font-size="100" font-family="CambriaMath"><tspan y="-3299" x="0">"</tspan></text>
<text xml:space="preserve" transform="matrix(.24 0 -0 .24 427.2816 1009.92)" font-size="75" font-family="CambriaMath"><tspan y="-3299" x="0">D</tspan></text>
<text xml:space="preserve" transform="matrix(.24 0 -0 .24 457.6116 1005.12)" font-size="100" font-family="CambriaMath"><tspan y="-3299" x="0">&#x2026;</tspan></text>
<text xml:space="preserve" transform="matrix(.24 0 -0 .24 484.8616 1005.12)" font-size="100" font-family="CambriaMath"><tspan y="-3299" x="0">u</tspan></text>
<text xml:space="preserve" transform="matrix(.24 0 -0 .24 498.1116 1009.92)" font-size="75" font-family="CambriaMath"><tspan y="-3299" x="0">,</tspan></text>
<text xml:space="preserve" transform="matrix(.24 0 -0 .24 510.5016 1005.12)" font-size="100" font-family="CambriaMath"><tspan y="-3299" x="0">(</tspan></text>
<text xml:space="preserve" transform="matrix(.24 0 -0 .24 520.5016 1005.12)" font-size="100" font-family="CambriaMath"><tspan y="-3299" x="0">"</tspan></text>
<text xml:space="preserve" transform="matrix(.24 0 -0 .24 536.9416 1009.92)" font-size="75" font-family="CambriaMath"><tspan y="-3299" x="0">R</tspan></text>
<text xml:space="preserve" transform="matrix(.24 0 -0 .24 549.1516 1005.12)" font-size="100" font-family="CambriaMath"><tspan y="-3299" x="0">)</tspan></text>
<text xml:space="preserve" transform="matrix(.24 0 -0 .24 559.1516 1005.12)" font-size="100" font-family="CambriaMath"><tspan y="-3299" x="0">]</tspan></text>
<path transform="matrix(1,0,0,-1,0,792)" d="M 161.6172 508.8457 C 161.6172 513.0308 165.0098 516.4236 169.1949 516.4236 L 630.1684 516.4236 C 634.3535 516.4236 637.7462 513.0308 637.7462 508.8457 L 637.7462 478.5354 C 637.7462 474.3503 634.3535 470.9576 630.1684 470.9576 L 169.1949 470.9576 C 165.0098 470.9576 161.6172 474.3503 161.6172 478.5354 Z " fill="#f2f2f2"/>
<path transform="matrix(.00007874016,0,0,.00007874016,161.6172,275.57643)" stroke-width="12700" stroke-linecap="butt" stroke-dasharray="12700,12700" stroke-miterlimit="8" stroke-linejoin="miter" fill="none" stroke="#000000" d="M 0 96238.54 C 0 43087.46 43087.04 0 96237.59 0 L 5950601 0 C 6003752 0 6046839 43087.46 6046839 96238.54 L 6046839 481179.5 C 6046839 534330.5 6003752 577418 5950601 577418 L 96237.59 577418 C 43087.04 577418 0 534330.5 0 481179.5 Z "/>
<text xml:space="preserve" transform="matrix(.24 0 -0 .24 205.4142 1091.28)" font-size="100" font-family="CambriaMath"><tspan y="-3299" x="0">S</tspan></text>
<text xml:space="preserve" transform="matrix(.24 0 -0 .24 203.9192 1096.08)" font-size="100" font-family="CambriaMath"><tspan y="-3299" x="0">&#x03a9;</tspan></text>
<text xml:space="preserve" transform="matrix(.24 0 -0 .24 226.8342 1096.08)" font-size="100" font-family="CambriaMath"><tspan y="-3299" x="0">=</tspan></text>
<text xml:space="preserve" transform="matrix(.24 0 -0 .24 251.3742 1096.08)" font-size="100" font-family="CambriaMath"><tspan y="-3299" x="0">{</tspan></text>
<text xml:space="preserve" transform="matrix(.24 0 -0 .24 263.9492 1096.08)" font-size="100" font-family="CambriaMath"><tspan y="-3299" x="0">B</tspan></text>
<text xml:space="preserve" transform="matrix(.24 0 -0 .24 260.6242 1096.08)" font-size="100" font-family="CambriaMath"><tspan y="-3299" x="0">"</tspan></text>
<text xml:space="preserve" transform="matrix(.24 0 -0 .24 277.4442 1100.88)" font-size="75" font-family="CambriaMath"><tspan y="-3299" x="0">&#x003c;</tspan></text>
<text xml:space="preserve" transform="matrix(.24 0 -0 .24 288.5642 1096.08)" font-size="100" font-family="CambriaMath"><tspan y="-3299" x="0">,</tspan></text>
<text xml:space="preserve" transform="matrix(.24 0 -0 .24 300.7642 1096.08)" font-size="100" font-family="CambriaMath"><tspan y="-3299" x="0">B</tspan></text>
<text xml:space="preserve" transform="matrix(.24 0 -0 .24 297.4392 1096.08)" font-size="100" font-family="CambriaMath"><tspan y="-3299" x="0">"</tspan></text>
<text xml:space="preserve" transform="matrix(.24 0 -0 .24 314.8142 1100.88)" font-size="75" font-family="CambriaMath"><tspan y="-3299" x="0">D</tspan></text>
<text xml:space="preserve" transform="matrix(.24 0 -0 .24 325.9342 1096.08)" font-size="100" font-family="CambriaMath"><tspan y="-3299" x="0">,</tspan></text>
<text xml:space="preserve" transform="matrix(.24 0 -0 .24 334.8092 1096.08)" font-size="100" font-family="CambriaMath"><tspan y="-3299" x="0">&#x2026;</tspan></text>
<text xml:space="preserve" transform="matrix(.24 0 -0 .24 356.8092 1096.08)" font-size="100" font-family="CambriaMath"><tspan y="-3299" x="0">,</tspan></text>
<text xml:space="preserve" transform="matrix(.24 0 -0 .24 369.0092 1096.08)" font-size="100" font-family="CambriaMath"><tspan y="-3299" x="0">B</tspan></text>
<text xml:space="preserve" transform="matrix(.24 0 -0 .24 365.6842 1096.08)" font-size="100" font-family="CambriaMath"><tspan y="-3299" x="0">"</tspan></text>
<text xml:space="preserve" transform="matrix(.24 0 -0 .24 382.1242 1100.88)" font-size="75" font-family="CambriaMath"><tspan y="-3299" x="0">F</tspan></text>
<text xml:space="preserve" transform="matrix(.24 0 -0 .24 391.9792 1096.08)" font-size="100" font-family="CambriaMath"><tspan y="-3299" x="0">}</tspan></text>
<text xml:space="preserve" transform="matrix(.24 0 -0 .24 407.8942 1096.08)" font-size="100" font-family="CambriaMath"><tspan y="-3299" x="0">&#x2282;</tspan></text>
<text xml:space="preserve" transform="matrix(.24 0 -0 .24 432.4342 1096.08)" font-size="100" font-family="CambriaMath"><tspan y="-3299" x="0">&#x03a9;</tspan></text>
<text xml:space="preserve" transform="matrix(.24 0 -0 .24 448.6842 1096.08)" font-size="100" font-family="CambriaMath"><tspan y="-3299" x="0">,</tspan></text>
<text xml:space="preserve" transform="matrix(.24 0 -0 .24 504.8842 1096.08)" font-size="100" font-family="CambriaMath"><tspan y="-3299" x="0">B</tspan></text>
<text xml:space="preserve" transform="matrix(.24 0 -0 .24 501.5591 1096.08)" font-size="100" font-family="CambriaMath"><tspan y="-3299" x="0">"</tspan></text>
<text xml:space="preserve" transform="matrix(.24 0 -0 .24 516.7991 1100.88)" font-size="75" font-family="CambriaMath"><tspan y="-3299" x="0">W</tspan></text>
<text xml:space="preserve" transform="matrix(.24 0 -0 .24 533.3092 1096.08)" font-size="100" font-family="CambriaMath"><tspan y="-3299" x="0">=</tspan></text>
<text xml:space="preserve" transform="matrix(.24 0 -0 .24 557.8492 1096.08)" font-size="100" font-family="CambriaMath"><tspan y="-3299" x="0">"</tspan></text>
<text xml:space="preserve" transform="matrix(.24 0 -0 .24 575.2241 1100.88)" font-size="75" font-family="CambriaMath"><tspan y="-3299" x="0">X</tspan></text>
<text xml:space="preserve" transform="matrix(.24 0 -0 .24 581.3491 1104.72)" font-size="58.33333" font-family="CambriaMath"><tspan y="-3299" x="0">Y</tspan></text>
<path transform="matrix(1,0,0,-1,0,792)" d="M 400.4317 647.6594 L 400.4318 616.9558 L 398.9318 616.9558 L 398.9317 647.6594 Z M 404.6818 617.9558 L 399.6818 607.9558 L 394.6818 617.9558 Z " fill="#767171"/>
<path transform="matrix(1,0,0,-1,0,792)" d="M 400.4317 564.3274 L 400.4318 525.4236 L 398.9318 525.4236 L 398.9317 564.3274 Z M 404.6818 526.4236 L 399.6818 516.4236 L 394.6818 526.4235 Z " fill="#767171"/>
<text xml:space="preserve" transform="matrix(.24 0 -0 .24 243.5422 1050.72)" font-size="83.33333" font-family="Calibri"><tspan y="-3299" x="0 38.541669 73.833339 115.458339 134.75002 175.95836 203.25002 246.95835">Skeleton</tspan></text>
<text xml:space="preserve" transform="matrix(.24 0 -0 .24 317.8472 1050.72)" font-size="83.33333" font-family="Calibri"><tspan y="-3299" x="0 32.816667 74.46667 93.7 135.35 170.75002 198.90001 218.13335 261.8667">selection</tspan></text>
<text xml:space="preserve" transform="matrix(.24 0 -0 .24 407.4191 1050.72)" font-size="83.33333" font-family="Calibri"><tspan y="-3299" x="0 33.225 76.95 120.674999 139.98332">Tool:</tspan></text>
<text xml:space="preserve" transform="matrix(.24 0 -0 .24 450.8941 1050.72)" font-size="83.33333" font-family="Calibri"><tspan y="-3299" x="0 34.725 78.475 97.75 141.5 208.16666">column</tspan></text>
<text xml:space="preserve" transform="matrix(.24 0 -0 .24 515.8541 1050.72)" font-size="83.33333" font-family="Calibri"><tspan y="-3299" x="0 43.75 63.01667 99.75 143.49999 170.72499 212.39167">pivoted</tspan></text>
<text xml:space="preserve" transform="matrix(.24 0 -0 .24 581.8291 1050.72)" font-size="83.33333" font-family="Calibri"><tspan y="-3299" x="0 56.249998">QR</tspan></text>
<path transform="matrix(-.00007874016,-0,0,.00007874016,400.2191,321.3128)" stroke-width="19050" stroke-linecap="butt" stroke-miterlimit="8" stroke-linejoin="miter" fill="none" stroke="#44546a" d="M 0 0 L 6825 478721 "/>
<path transform="matrix(.00007874016,0,0,.00007874016,194.0681,356.8005)" stroke-width="19050" stroke-linecap="butt" stroke-miterlimit="8" stroke-linejoin="miter" fill="none" stroke="#44546a" d="M 0 0 L 5485937 56056 "/>
<path transform="matrix(1,0,0,-1,0,792)" d="M 626.7817 430.7857 L 626.7817 410.6941 L 625.2817 410.6941 L 625.2817 430.7857 Z M 631.0317 411.6941 L 626.0317 401.6941 L 621.0317 411.6941 Z " fill="#44546a"/>
<path transform="matrix(1,0,0,-1,0,792)" d="M 194.8182 435.4699 L 194.8182 413.3607 L 193.3182 413.3607 L 193.3182 435.4699 Z M 199.0682 414.3607 L 194.0683 404.3607 L 189.0682 414.3607 Z " fill="#44546a"/>
<text xml:space="preserve" transform="matrix(.24 0 -0 .24 410.6113 1140.96)" font-size="83.33333" font-family="Calibri"><tspan y="-3299" x="0 38.541669 82.25 101.541667 138.25">Solve</tspan></text>
<text xml:space="preserve" transform="matrix(.24 0 -0 .24 458.2913 1140.96)" font-size="83.33333" font-family="Calibri"><tspan y="-3299" x="0 25.525 64.05">(F)</tspan></text>
<text xml:space="preserve" transform="matrix(.24 0 -0 .24 484.2913 1140.96)" font-size="83.33333" font-family="Calibri"><tspan y="-3299" x="0 23.775 67.549999">for</tspan></text>
<text xml:space="preserve" transform="matrix(.24 0 -0 .24 511.9963 1140.96)" font-size="83.33333" font-family="Calibri"><tspan y="-3299" x="0 41.666666 81.75 117.166667">each</tspan></text>
<text xml:space="preserve" transform="matrix(.24 0 -0 .24 557.8913 1140.96)" font-size="83.33333" font-family="CambriaMath"><tspan y="-3299" x="0">B</tspan></text>
<text xml:space="preserve" transform="matrix(.24 0 -0 .24 555.1213 1140.96)" font-size="83.33333" font-family="CambriaMath"><tspan y="-3299" x="0">"</tspan></text>
<text xml:space="preserve" transform="matrix(.24 0 -0 .24 575.6163 1140.96)" font-size="83.33333" font-family="CambriaMath"><tspan y="-3299" x="0">&#x2208;</tspan></text>
<text xml:space="preserve" transform="matrix(.24 0 -0 .24 594.9163 1136.88)" font-size="83.33333" font-family="CambriaMath"><tspan y="-3299" x="0">S</tspan></text>
<text xml:space="preserve" transform="matrix(.24 0 -0 .24 593.6713 1140.96)" font-size="83.33333" font-family="CambriaMath"><tspan y="-3299" x="0">&#x03a9;</tspan></text>
<path transform="matrix(1,0,0,-1,0,792)" d="M 193.3182 362.3466 L 193.3181 332.9519 L 194.8181 332.9519 L 194.8182 362.3466 Z M 189.0681 333.9519 L 194.0681 323.9519 L 199.0681 333.9519 Z " fill="#44546a"/>
<text xml:space="preserve" transform="matrix(.24 0 -0 .24 62.10882 1248.48)" font-size="83.33333" font-family="Calibri"><tspan y="-3299" x="0 44.275 88.025 131.775 163.65001 191.77501 220.94167 264.69166 300.1083">Construct</tspan></text>
<text xml:space="preserve" transform="matrix(.24 0 -0 .24 145.3838 1248.48)" font-size="83.33333" font-family="Calibri"><tspan y="-3299" x="0 43.75 83.850009 116.66667 135.94167">basis</tspan></text>
<text xml:space="preserve" transform="matrix(.24 0 -0 .24 202.8414 1248.96)" font-size="83.33333" font-family="Calibri"><tspan y="-3299" x="0 33.225 76.95 120.674999 139.98332">Tool:</tspan></text>
<text xml:space="preserve" transform="matrix(.24 0 -0 .24 246.3164 1248.96)" font-size="83.33333" font-family="Calibri"><tspan y="-3299" x="0 37.975 85.36666 136.42499">SVD:</tspan></text>
<text xml:space="preserve" transform="matrix(.24 0 -0 .24 294.3114 1245.12)" font-size="83.33333" font-family="CambriaMath"><tspan y="-3299" x="0">?</tspan></text>
<text xml:space="preserve" transform="matrix(.24 0 -0 .24 293.4314 1248.96)" font-size="83.33333" font-family="CambriaMath"><tspan y="-3299" x="0">S</tspan></text>
<text xml:space="preserve" transform="matrix(.24 0 -0 .24 303.3064 1248.96)" font-size="83.33333" font-family="CambriaMath"><tspan y="-3299" x="0 62.5 116.666667 162.5">=U&#x03a3;V</tspan></text>
<path transform="matrix(1,0,0,-1,0,792)" d="M 625.0674 359.68 L 625.0674 330.2853 L 623.5674 330.2853 L 623.5674 359.68 Z M 629.3174 331.2853 L 624.3175 321.2853 L 619.3174 331.2853 Z " fill="#44546a"/>
<text xml:space="preserve" transform="matrix(.24 0 -0 .24 633.2317 1250.16)" font-size="83.33333" font-family="Calibri"><tspan y="-3299" x="0 48.441667 73.149997 98.66666 117.93333 161.68332">Affine</tspan></text>
<text xml:space="preserve" transform="matrix(.24 0 -0 .24 686.5366 1250.16)" font-size="83.33333" font-family="Calibri"><tspan y="-3299" x="0 40.100004 72.916667 105.73333 149.48334 216.15 259.525 287.65 306.92503 350.67503">assumption</tspan></text>
<path transform="matrix(1,0,0,-1,0,792)" d="M 623.7501 275.3422 L 623.7502 245.9475 L 622.2502 245.9475 L 622.2501 275.3422 Z M 628.0002 246.9475 L 623.0002 236.9475 L 618.0002 246.9475 Z " fill="#44546a"/>
<text xml:space="preserve" transform="matrix(.24 0 -0 .24 630.2001 1334.64)" font-size="83.33333" font-family="Calibri"><tspan y="-3299" x="0 45.316667 85.41667 129.16667 172.91667 216.66667 283.33335 302.60838">Randomly</tspan></text>
<text xml:space="preserve" transform="matrix(.24 0 -0 .24 716.3252 1334.64)" font-size="83.33333" font-family="Calibri"><tspan y="-3299" x="0 32.81667 76.566669 119.9 152.71668 192.82501 259.49168 303.24168 322.5167">subsample</tspan></text>
<path transform="matrix(1,0,0,-1,0,792)" d="M 625.7338 199.3366 L 512.4144 150.2889 L 513.0103 148.9123 L 626.3296 197.96 Z M 511.644 154.5865 L 504.4528 146.0257 L 515.6162 145.4092 Z " fill="#44546a"/>
<path transform="matrix(1,0,0,-1,0,792)" d="M 577.2814 127.77 L 690.4538 127.7699 L 690.4538 126.2699 L 577.2814 126.27 Z M 689.4538 132.0199 L 699.4538 127.0199 L 689.4538 122.0199 Z " fill="#44546a"/>
<text xml:space="preserve" transform="matrix(.24 0 -0 .24 380.1682 1417.44)" font-size="83.33333" font-family="Calibri"><tspan y="-3299" x="0 48.441667 81.25833 114.075 155.74167 222.40833 266.15834 285.43336">Assemble</tspan></text>
<text xml:space="preserve" transform="matrix(.24 0 -0 .24 463.1682 1417.44)" font-size="83.33333" font-family="Calibri"><tspan y="-3299" x="0 43.749998 87.5 129.16667 156.625 195.95835 223.27501 267.02503">operator</tspan></text>
<path transform="matrix(1,0,0,-1,0,792)" d="M 95.88606 53.5972 C 95.88606 57.9125 99.38428 61.4108 103.6995 61.4108 L 605.0889 61.4108 C 609.4042 61.4108 612.9024 57.9125 612.9024 53.5972 L 612.9024 22.3436 C 612.9024 18.0283 609.4042 14.5301 605.0889 14.5301 L 103.6995 14.5301 C 99.38428 14.5301 95.88606 18.0283 95.88606 22.3436 Z " fill="#f2f2f2"/>
<path transform="matrix(.00007874016,0,0,.00007874016,95.88606,730.5892)" stroke-width="12700" stroke-linecap="butt" stroke-dasharray="12700,12700" stroke-miterlimit="8" stroke-linejoin="miter" fill="none" stroke="#000000" d="M 0 99232.03 C 0 44427.69 44427.34 0 99231.24 0 L 6466877 0 C 6521680 0 6566108 44427.69 6566108 99232.03 L 6566108 496153 C 6566108 550957.3 6521680 595385 6466877 595385 L 99231.24 595385 C 44427.34 595385 0 550957.3 0 496153 Z "/>
<text xml:space="preserve" transform="matrix(.24 0 -0 .24 111.7017 1555.9199)" font-size="100" font-family="CambriaMath"><tspan y="-3299" x="0">Q</tspan></text>
<text xml:space="preserve" transform="matrix(.24 0 -0 .24 127.3267 1547.28)" font-size="100" font-family="CambriaMath"><tspan y="-3299" x="0">T</tspan></text>
<text xml:space="preserve" transform="matrix(.24 0 -0 .24 142.5717 1555.9199)" font-size="100" font-family="CambriaMath"><tspan y="-3299" x="0">L</tspan></text>
<path transform="matrix(1,0,0,-1,0,792)" d="M 184.0684 45.7541 C 186.3497 45.1525 188.1016 43.8537 189.3243 41.8576 C 190.547 39.8615 191.1583 37.4533 191.1583 34.633 C 191.1583 31.8048 190.5489 29.3966 189.3302 27.4084 C 188.1114 25.4201 186.3575 24.1252 184.0684 23.5236 L 183.7872 24.4259 C 185.5919 25.0275 186.9337 26.215 187.8126 27.9884 C 188.6915 29.7619 189.1309 32.0158 189.1309 34.7502 C 189.1309 37.3908 188.6934 39.5841 187.8184 41.3302 C 186.9434 43.0763 185.588 44.2502 183.752 44.8517 Z M 164.6459 45.7541 L 164.9623 44.8517 C 163.1342 44.2502 161.7807 43.0763 160.9018 41.3302 C 160.0229 39.5841 159.5834 37.3908 159.5834 34.7502 C 159.5834 32.0158 160.0229 29.7619 160.9018 27.9884 C 161.7807 26.215 163.1225 25.0275 164.9272 24.4259 L 164.6459 23.5236 C 162.3569 24.1252 160.603 25.4201 159.3842 27.4084 C 158.1655 29.3966 157.5561 31.8048 157.5561 34.633 C 157.5561 37.4533 158.1674 39.8615 159.3901 41.8576 C 160.6127 43.8537 162.3647 45.1525 164.6459 45.7541 Z " fill-rule="evenodd"/>
<text xml:space="preserve" transform="matrix(.24 0 -0 .24 165.4067 1555.9199)" font-size="100" font-family="CambriaMath"><tspan y="-3299" x="0">"</tspan></text>
<text xml:space="preserve" transform="matrix(.24 0 -0 .24 193.2667 1555.9199)" font-size="100" font-family="CambriaMath"><tspan y="-3299" x="0 65.100009">Qv</tspan></text>
<text xml:space="preserve" transform="matrix(.24 0 -0 .24 221.0167 1555.9199)" font-size="100" font-family="CambriaMath"><tspan y="-3299" x="0">(</tspan></text>
<text xml:space="preserve" transform="matrix(.24 0 -0 .24 231.0167 1555.9199)" font-size="100" font-family="CambriaMath"><tspan y="-3299" x="0">&#x03c9;</tspan></text>
<text xml:space="preserve" transform="matrix(.24 0 -0 .24 249.0167 1555.9199)" font-size="100" font-family="CambriaMath"><tspan y="-3299" x="0">)</tspan></text>
<text xml:space="preserve" transform="matrix(.24 0 -0 .24 265.6817 1555.9199)" font-size="100" font-family="CambriaMath"><tspan y="-3299" x="0">=</tspan></text>
<text xml:space="preserve" transform="matrix(.24 0 -0 .24 290.2217 1555.9199)" font-size="100" font-family="CambriaMath"><tspan y="-3299" x="0">Q</tspan></text>
<text xml:space="preserve" transform="matrix(.24 0 -0 .24 305.8467 1547.28)" font-size="100" font-family="CambriaMath"><tspan y="-3299" x="0">T</tspan></text>
<text xml:space="preserve" transform="matrix(.24 0 -0 .24 321.0917 1555.9199)" font-size="100" font-family="CambriaMath"><tspan y="-3299" x="0">f</tspan></text>
<text xml:space="preserve" transform="matrix(.24 0 -0 .24 333.7167 1555.9199)" font-size="100" font-family="CambriaMath"><tspan y="-3299" x="0">(</tspan></text>
<text xml:space="preserve" transform="matrix(.24 0 -0 .24 343.7167 1555.9199)" font-size="100" font-family="CambriaMath"><tspan y="-3299" x="0">&#x03c9;</tspan></text>
<text xml:space="preserve" transform="matrix(.24 0 -0 .24 361.7167 1555.9199)" font-size="100" font-family="CambriaMath"><tspan y="-3299" x="0">)</tspan></text>
<text xml:space="preserve" transform="matrix(.24 0 -0 .24 393.0917 1555.9199)" font-size="100" font-family="CambriaMath"><tspan y="-3299" x="0">&#x27f6;</tspan></text>
<text xml:space="preserve" transform="matrix(.24 0 -0 .24 443.7567 1555.9199)" font-size="100" font-family="CambriaMath"><tspan y="-3299" x="0">u</tspan></text>
<text xml:space="preserve" transform="matrix(.24 0 -0 .24 457.0067 1555.9199)" font-size="100" font-family="CambriaMath"><tspan y="-3299" x="0">(</tspan></text>
<text xml:space="preserve" transform="matrix(.24 0 -0 .24 467.0067 1555.9199)" font-size="100" font-family="CambriaMath"><tspan y="-3299" x="0">&#x03c9;</tspan></text>
<text xml:space="preserve" transform="matrix(.24 0 -0 .24 485.0067 1555.9199)" font-size="100" font-family="CambriaMath"><tspan y="-3299" x="0">)</tspan></text>
<text xml:space="preserve" transform="matrix(.24 0 -0 .24 501.6717 1555.9199)" font-size="100" font-family="CambriaMath"><tspan y="-3299" x="0">&#x2248;</tspan></text>
<text xml:space="preserve" transform="matrix(.24 0 -0 .24 525.9617 1555.9199)" font-size="100" font-family="CambriaMath"><tspan y="-3299" x="0 65.100009">Qv</tspan></text>
<text xml:space="preserve" transform="matrix(.24 0 -0 .24 559.0867 1555.9199)" font-size="100" font-family="CambriaMath"><tspan y="-3299" x="0">(</tspan></text>
<text xml:space="preserve" transform="matrix(.24 0 -0 .24 569.0867 1555.9199)" font-size="100" font-family="CambriaMath"><tspan y="-3299" x="0">&#x03c9;</tspan></text>
<text xml:space="preserve" transform="matrix(.24 0 -0 .24 587.0867 1555.9199)" font-size="100" font-family="CambriaMath"><tspan y="-3299" x="0">)</tspan></text>
<path transform="matrix(1,0,0,-1,0,792)" d="M 194.8181 258.7474 L 196.3196 70.4165 L 194.8197 70.4045 L 193.3181 258.7355 Z M 200.5615 71.4504 L 195.6414 61.4108 L 190.5618 71.3707 Z " fill="#44546a"/>
<path transform="matrix(1,0,0,-1,0,792)" d="M 759.7361 105.1015 L 621.3306 64.6552 L 621.7514 63.2154 L 760.1569 103.6617 Z M 621.0984 69.0151 L 612.9023 61.4108 L 623.9034 59.4165 Z " fill="#44546a"/>
</g>
</g>
</svg>
